PathFileType	4	(X/Y/Z)	C:/Users/cpontonn/Documents/TRAVAIL - COURS/FORMATION DOCTORALE/COURS 2E/2023/TP OPENSIM/DATA/marche.trc	
DataRate	CameraRate	NumFrames	NumMarkers	Units	OrigDataRate	OrigDataStartFrame	OrigNumFrames	
100.00	100.00	9	38	mm	100.00	270	414	
Frame#	Time	LFHD			LBHD			RFHD			RBHD			C7			T10			CLAV			STRN			LSHO			LRAD			LHUM			LWRB			LWRA			LCAR			RSHO			RRAD			RHUM			RWRB			RWRA			RCAR			LFWT			LBWT			RFWT			RBWT			LKNE			LKNI			LANE			LHEE			LANI			LTAR			LTOE			RKNE			RKNI			RANE			RHEE			RANI			RTAR			RTOE			
		X1	Y1	Z1	X2	Y2	Z2	X3	Y3	Z3	X4	Y4	Z4	X5	Y5	Z5	X6	Y6	Z6	X7	Y7	Z7	X8	Y8	Z8	X9	Y9	Z9	X10	Y10	Z10	X11	Y11	Z11	X12	Y12	Z12	X13	Y13	Z13	X14	Y14	Z14	X15	Y15	Z15	X16	Y16	Z16	X17	Y17	Z17	X18	Y18	Z18	X19	Y19	Z19	X20	Y20	Z20	X21	Y21	Z21	X22	Y22	Z22	X23	Y23	Z23	X24	Y24	Z24	X25	Y25	Z25	X26	Y26	Z26	X27	Y27	Z27	X28	Y28	Z28	X29	Y29	Z29	X30	Y30	Z30	X31	Y31	Z31	X32	Y32	Z32	X33	Y33	Z33	X34	Y34	Z34	X35	Y35	Z35	X36	Y36	Z36	X37	Y37	Z37	X38	Y38	Z38	

156	1.550	683.08423	157.54169	1648.29993	828.74725	161.20869	1672.18579	674.88123	292.80206	1658.90698	836.23871	287.74387	1676.39832	926.14722	249.23511	1563.58521	1048.10645	252.95883	1358.11560	821.94147	250.32359	1456.02246	825.28827	257.55197	1274.42578	880.70343	47.38026	1512.27869	1035.11719	15.28653	1171.77808	1054.53406	73.92194	1191.01843	1049.04297	5.60326	915.98291	1023.54712	79.09019	907.91046	1027.72083	28.70111	826.43768	880.91040	439.31128	1514.03052	928.01788	543.28888	1146.34778	962.01538	492.75009	1147.66626	784.64783	553.53027	925.15509	753.53210	487.83435	935.04462	722.68622	544.44373	864.79669	805.89703	188.15695	1016.87177	1007.67401	212.61476	1044.85437	836.80762	376.96008	1012.34021	1021.45020	293.85791	1046.38647	708.42865	122.56033	537.23706	698.22607	235.28685	504.21878	559.77258	155.10251	106.89719	617.65424	206.89093	13.95411	559.05133	244.68628	117.30030	391.42807	145.70407	100.54508	349.16110	231.53961	127.24642	1076.57458	406.56750	514.34973	1083.25610	308.21246	474.37866	1350.64868	351.64520	136.22609	1444.04297	283.84842	100.81225	1325.55579	263.05676	154.43677	1227.76062	388.98233	34.33305	1166.97705	305.35718	31.13176 
157	1.560	667.99481	154.42674	1647.63379	814.56964	158.27559	1671.34119	659.74872	289.64636	1658.85779	821.16339	284.69403	1675.99792	910.93982	246.66223	1562.56689	1031.94202	251.47713	1356.34448	806.34656	248.60153	1455.45166	808.63544	256.73431	1273.80200	864.74377	45.12874	1510.29736	1016.53259	12.94756	1168.71008	1036.45361	72.91154	1187.71570	1029.14221	4.79024	913.23718	1002.50970	77.76927	904.96704	1006.35541	27.27964	823.62286	865.95294	437.27048	1514.09778	914.51648	542.52643	1146.91028	948.22467	491.84164	1148.12256	773.26837	554.84760	924.44775	741.66400	489.27875	933.75543	711.83948	546.51941	863.53485	788.52405	188.05394	1016.22864	991.17017	213.49176	1044.26099	819.58679	376.86328	1010.55341	1003.63293	293.53391	1044.80359	691.67181	122.92546	536.95221	682.77600	235.83401	503.75937	551.73505	156.54387	104.64694	616.58685	206.60535	16.01144	551.36688	246.79333	114.17722	384.95035	148.27072	89.27631	341.27692	234.66679	112.22105	1059.04663	407.43692	512.18488	1066.24402	309.09845	472.08456	1344.72144	351.02982	142.51160	1439.17346	283.89432	111.35728	1318.75549	263.52350	160.22868	1227.25745	389.01520	34.41474	1166.67542	305.38898	30.80574 
158	1.570	652.91193	151.40501	1647.63635	799.76770	155.23375	1670.94019	644.51337	286.48953	1659.22571	806.02258	281.58725	1676.00928	895.64050	244.15881	1562.10095	1015.82098	250.03889	1355.16919	790.75824	246.90385	1455.32043	792.09448	256.05655	1273.57837	848.83704	42.90514	1508.70190	998.78448	12.56749	1165.73376	1018.37415	71.74873	1184.29993	1007.98810	3.32193	910.02582	981.14349	76.41932	902.27869	984.43683	25.76345	820.95630	850.88531	435.29208	1514.47913	901.13965	541.65320	1147.73120	935.94745	491.25037	1149.23987	762.38898	556.12201	923.92139	730.25684	490.74966	932.59851	701.57306	548.63373	862.43317	771.25922	187.58214	1016.41205	974.14014	213.44826	1043.75989	802.31134	376.57779	1009.22614	986.13934	293.52139	1043.55603	674.92462	122.78688	537.74933	667.96661	236.16463	504.07388	545.70837	157.19341	102.90623	615.59412	206.24356	17.78855	545.54462	248.08983	111.90918	379.69351	150.67586	79.22154	335.32394	237.55817	98.63763	1040.30688	408.44598	510.17981	1048.25500	310.26431	470.16406	1337.59912	350.18765	149.40317	1433.42249	283.36960	123.49300	1310.30225	264.26132	166.12120	1226.59155	388.92325	34.61417	1166.18103	305.43503	30.41880 
159	1.580	637.62372	148.32065	1647.91870	784.63635	152.11368	1670.97485	629.28857	283.37976	1660.02576	790.82343	278.42709	1676.48096	880.28809	241.76550	1562.17773	999.76172	248.81477	1354.59937	775.25116	245.28670	1455.59741	775.68616	255.35657	1273.83154	833.08179	40.75272	1507.48254	979.99908	11.08839	1162.96509	999.77539	70.43572	1181.25610	986.64484	1.98945	907.27283	959.30237	74.94886	899.82599	962.03540	24.23114	818.59503	835.71332	433.45337	1515.35803	888.13116	540.60565	1149.06055	922.52045	489.91165	1150.51196	752.09296	557.46136	923.81305	719.22156	492.26782	931.75519	691.90363	550.85699	861.65570	754.20667	186.91660	1017.68018	957.30255	213.81361	1044.11304	783.44696	376.28351	1008.81903	968.51495	294.03522	1042.96838	657.27130	122.32607	540.04382	652.85968	235.79448	505.85828	540.61462	157.64058	101.92501	614.57172	205.89842	19.39830	541.10767	248.40794	110.39439	375.81720	152.58809	71.28854	330.95731	239.98007	87.62237	1020.21796	409.72205	508.42584	1028.59119	311.35480	468.08676	1328.98792	351.64389	156.80637	1425.59399	282.72803	136.91447	1300.37317	264.94681	172.46819	1225.75183	388.78757	35.11843	1165.50562	305.54721	29.99497 
160	1.590	622.41840	145.26111	1648.71631	769.45868	149.02911	1671.48279	613.99451	280.30597	1661.22839	775.52600	275.39465	1677.48523	864.88141	239.47717	1562.87073	983.86810	247.86017	1354.85388	759.80408	243.70662	1456.43933	759.37250	254.78923	1274.55518	817.62262	38.70310	1506.82092	960.38037	9.51339	1160.61670	980.91608	69.12481	1178.53369	964.84186	0.45698	904.90582	937.04095	73.31192	897.75531	939.12317	22.63034	816.54889	820.39838	431.73593	1516.75220	875.24170	539.33142	1150.87256	909.24146	488.38910	1152.36511	742.38239	558.73407	923.99677	708.75378	493.84277	931.15540	682.92816	553.21008	861.23303	737.52985	186.02344	1019.88477	940.79950	214.68457	1045.26978	765.58734	375.62918	1008.73920	951.89807	294.93405	1043.12695	639.45660	121.62319	542.94739	637.43451	234.93111	509.02771	536.65167	157.51015	101.23360	613.23083	205.66876	21.10880	537.46014	248.23660	109.82214	372.97546	153.68135	64.66899	327.83582	241.32051	78.81084	998.91040	411.29813	506.92020	1007.25763	312.88702	465.69687	1318.98083	351.83026	164.97050	1415.78223	281.71542	151.64711	1288.35315	266.04251	178.84340	1224.61084	388.61282	35.90058	1164.41650	305.71613	29.40236 
161	1.600	607.20892	142.20473	1649.89209	754.28485	146.12112	1672.43262	598.59918	277.20734	1662.77832	760.20679	272.43213	1678.97754	849.58087	237.37181	1564.11816	968.09625	247.24828	1355.73889	744.36719	242.22705	1457.71326	743.20325	254.31070	1275.87305	802.48273	36.82901	1506.66919	940.95782	8.11857	1158.58215	961.82941	67.94284	1176.17737	942.47034	-1.20015	902.93304	914.36963	71.58330	896.23138	915.57080	20.95437	815.03680	804.97113	430.07404	1518.69629	862.52795	537.86298	1153.36243	896.09821	486.61490	1154.86890	733.32471	559.88916	924.65808	698.86505	495.38531	931.01050	674.68365	555.55066	861.22546	721.27014	184.98610	1022.71124	923.95099	214.88161	1046.73425	748.02966	374.70303	1009.19421	936.63977	296.85507	1044.37085	622.98627	120.38346	545.96564	622.36456	233.51982	512.58484	533.81128	156.85791	100.82426	612.80652	205.20332	21.78798	534.72546	247.31833	109.78160	371.09390	153.78455	59.39189	325.67383	241.54869	72.21593	976.27722	413.31458	505.65384	984.28583	314.74066	463.18460	1307.34619	351.86340	173.72018	1403.71375	280.30630	167.71851	1274.71936	266.91629	185.93532	1223.24390	388.31268	37.22506	1163.09949	306.03281	28.86731 
162	1.610	592.08057	139.33826	1651.05383	739.24188	143.37265	1673.73645	583.24768	274.21381	1664.64478	744.86395	269.65775	1680.83740	834.32898	235.42139	1565.82129	952.43396	246.95454	1357.19214	728.96802	240.75970	1459.55908	727.30115	253.87915	1277.73340	787.65442	35.18295	1507.09314	921.35736	6.87736	1157.09509	942.49731	66.86730	1174.31445	919.50275	-3.06660	901.56635	891.16650	69.64385	895.23724	891.52911	19.06630	814.11786	789.50995	428.45706	1521.27832	850.03857	536.29681	1156.52588	883.10748	484.68661	1158.15662	725.27478	561.26196	925.94226	689.56146	496.84738	931.29352	667.21344	557.97955	861.68726	705.35693	183.71349	1025.93262	909.16962	218.05000	1049.82397	730.82507	373.46115	1010.15253	919.61188	298.26849	1045.80469	608.48846	118.21065	548.59619	607.90521	231.60127	515.91071	531.74323	156.15446	100.66202	612.29858	204.97231	22.64361	532.65338	246.33864	110.10323	369.87616	153.33026	55.37664	324.12912	241.01672	67.48545	952.27832	415.41730	504.44931	959.65057	316.91788	460.81473	1293.97559	351.69949	183.35846	1389.21558	278.41507	184.93323	1259.20435	267.61905	193.48605	1221.24304	388.00595	39.70006	1161.56995	306.33939	28.01188 
163	1.620	577.02686	136.59334	1652.52148	724.30341	140.83995	1675.24304	567.97766	271.37512	1666.72107	729.63251	267.07431	1682.91553	819.28259	233.66597	1567.81885	936.95471	246.93224	1359.05261	713.71844	239.43581	1461.71240	711.69720	253.53336	1280.06018	773.08331	33.75797	1508.05225	901.74609	5.79737	1156.15283	923.13782	65.94108	1172.98315	896.05438	-4.97323	900.87726	867.53796	67.63194	894.86456	867.68475	17.05507	813.47723	774.12836	426.93445	1524.28516	837.71222	534.68317	1160.11743	870.36658	482.75308	1161.99365	717.38098	562.13678	927.55713	680.71515	498.22217	931.99506	660.39697	560.28027	862.56213	689.68665	182.38815	1029.43640	892.54132	218.33057	1052.54504	714.16071	372.03806	1011.55328	903.18982	299.69882	1047.72742	595.12323	116.12608	550.89862	594.02332	229.35918	518.50977	530.25702	155.36090	100.35335	611.89740	204.73743	23.28973	531.02740	245.18219	110.66472	369.00140	152.74567	52.28109	323.15475	240.49467	64.02156	927.21973	417.56213	503.33807	933.39246	319.30020	458.27737	1278.64209	351.32840	193.25940	1372.38025	275.81204	203.64368	1241.76599	268.25708	201.51358	1218.43921	387.54239	43.17959	1159.18787	306.97922	26.97736 
164	1.630	562.28546	133.98184	1654.09546	709.55762	138.51764	1676.86523	552.86334	268.67459	1668.95801	714.46350	264.85257	1684.93188	804.45508	232.17404	1569.99475	921.57019	246.93555	1361.19775	698.60101	238.27188	1464.23364	696.35645	253.27052	1282.73926	758.67163	32.55117	1509.49060	882.00867	3.72917	1155.86743	903.70551	65.25301	1172.19971	872.16809	-6.87884	900.79297	844.73260	65.62248	894.87720	842.52844	14.82064	813.70825	758.87177	425.53271	1527.58850	825.68549	533.06097	1164.19531	857.86670	480.88763	1166.35388	709.96411	562.85431	929.64917	672.26563	499.50372	933.08917	654.09265	562.52631	863.77106	674.23303	181.28990	1032.99609	877.01678	219.37895	1055.71191	698.46326	370.42050	1013.22540	887.45227	300.99347	1050.00793	583.23578	113.91222	552.62653	580.91034	227.22229	520.40186	529.11884	154.58174	100.22624	611.63171	204.52582	23.76162	529.92902	244.20076	111.16104	368.32669	152.34468	50.31849	322.49100	240.24194	61.62780	901.23956	419.32401	502.20218	905.93127	321.64069	455.89334	1261.11987	351.26227	203.45238	1351.81750	273.60089	222.41289	1222.04419	268.91306	209.21086	1215.00464	386.89297	47.40656	1156.26733	307.69247	25.67494 
